<?xml version="1.0" encoding="utf-8"?>
<!-- Generator: Adobe Illustrator 24.2.3, SVG Export Plug-In . SVG Version: 6.00 Build 0)  -->
<svg version="1.1" id="Ebene_1" xmlns="http://www.w3.org/2000/svg" xmlns:xlink="http://www.w3.org/1999/xlink" x="0px" y="0px"
	 viewBox="0 0 446.43 209.46" style="enable-background:new 0 0 446.43 209.46;" xml:space="preserve">
<style type="text/css">
	.st0{fill:none;stroke:#333333;stroke-width:0.7198;}
	.st1{fill:none;stroke:#000000;stroke-width:0.7198;stroke-miterlimit:10;}
	.st2{fill:#FFFFFF;}
	.st3{fill:none;stroke:#333333;stroke-width:0.7198;stroke-miterlimit:10;}
	.st4{fill:#333333;}
	.st5{opacity:0.051;}
	.st6{fill:none;stroke:#333333;stroke-width:1.511;stroke-linejoin:round;stroke-miterlimit:10;}
	.st7{fill:none;stroke:#333333;stroke-width:1.511;stroke-miterlimit:10;}
</style>
<g>
	<path class="st0" d="M12.88,0.36h241.28c0.82,0,1.64,0.08,2.44,0.24c0.81,0.16,1.59,0.4,2.35,0.71c0.76,0.31,1.48,0.7,2.17,1.16
		c0.68,0.46,1.32,0.98,1.9,1.56c0.58,0.58,1.1,1.21,1.56,1.9c0.46,0.68,0.84,1.41,1.16,2.17c0.31,0.76,0.55,1.54,0.71,2.35
		c0.16,0.81,0.24,1.62,0.24,2.44v183.69c0,0.82-0.08,1.64-0.24,2.44c-0.16,0.81-0.4,1.59-0.71,2.35c-0.31,0.76-0.7,1.48-1.16,2.17
		c-0.46,0.68-0.98,1.32-1.56,1.9c-0.58,0.58-1.21,1.1-1.9,1.56c-0.68,0.46-1.41,0.84-2.17,1.16c-0.76,0.31-1.54,0.55-2.35,0.71
		c-0.81,0.16-1.62,0.24-2.44,0.24H12.88c-0.82,0-1.64-0.08-2.44-0.24c-0.81-0.16-1.59-0.4-2.35-0.71c-0.76-0.31-1.48-0.7-2.17-1.16
		c-0.68-0.46-1.32-0.98-1.9-1.56c-0.58-0.58-1.1-1.21-1.56-1.9c-0.46-0.68-0.84-1.41-1.16-2.17c-0.31-0.76-0.55-1.54-0.71-2.35
		c-0.16-0.81-0.24-1.62-0.24-2.44V12.88c0-0.82,0.08-1.64,0.24-2.44C0.76,9.63,1,8.85,1.31,8.09c0.31-0.76,0.7-1.48,1.16-2.17
		c0.46-0.68,0.98-1.32,1.56-1.9c0.58-0.58,1.21-1.1,1.9-1.56s1.41-0.84,2.17-1.16C8.85,1,9.63,0.76,10.44,0.6
		C11.25,0.44,12.06,0.36,12.88,0.36z"/>
	<line class="st1" x1="73.33" y1="144.32" x2="103.75" y2="144.32"/>
	<polygon points="69.55,144.32 74.59,141.8 73.33,144.32 74.59,146.84 	"/>
	<polygon class="st1" points="69.55,144.32 74.59,141.8 73.33,144.32 74.59,146.84 	"/>
	<polygon points="107.52,144.32 102.49,146.84 103.75,144.32 102.49,141.8 	"/>
	<polygon class="st1" points="107.52,144.32 102.49,146.84 103.75,144.32 102.49,141.8 	"/>
	<path class="st2" d="M14.76,112.92c0-2.53,12.09-4.59,26.99-4.59c7.16,0,14.02,0.48,19.09,1.35c5.06,0.86,7.9,2.03,7.9,3.25v62.8
		c0,2.53-12.09,4.59-26.99,4.59s-26.99-2.06-26.99-4.59V112.92z"/>
	<path class="st3" d="M14.76,112.92c0-2.53,12.09-4.59,26.99-4.59c7.16,0,14.02,0.48,19.09,1.35c5.06,0.86,7.9,2.03,7.9,3.25v62.8
		c0,2.53-12.09,4.59-26.99,4.59s-26.99-2.06-26.99-4.59V112.92z"/>
	<path class="st3" d="M68.74,112.92c0,2.54-12.09,4.59-26.99,4.59s-26.99-2.05-26.99-4.59"/>
	<line class="st1" x1="156.1" y1="144.32" x2="193" y2="144.32"/>
	<polygon points="152.33,144.32 157.36,141.8 156.1,144.32 157.36,146.84 	"/>
	<polygon class="st1" points="152.33,144.32 157.36,141.8 156.1,144.32 157.36,146.84 	"/>
	<polygon points="196.78,144.32 191.74,146.84 193,144.32 191.74,141.8 	"/>
	<polygon class="st1" points="196.78,144.32 191.74,146.84 193,144.32 191.74,141.8 	"/>
	<path class="st2" d="M114.81,108.33h30.23c0.43,0,0.85,0.04,1.26,0.12c0.42,0.08,0.82,0.21,1.22,0.37c0.39,0.16,0.77,0.36,1.12,0.6
		c0.35,0.24,0.68,0.5,0.98,0.81s0.57,0.63,0.81,0.98s0.44,0.73,0.6,1.12c0.16,0.39,0.29,0.8,0.37,1.22
		c0.08,0.42,0.12,0.84,0.12,1.26v59.02c0,0.43-0.04,0.85-0.12,1.26c-0.08,0.42-0.21,0.82-0.37,1.22c-0.16,0.39-0.36,0.77-0.6,1.12
		s-0.5,0.68-0.81,0.98c-0.3,0.3-0.63,0.57-0.98,0.81s-0.73,0.44-1.12,0.6c-0.39,0.16-0.8,0.29-1.22,0.37
		c-0.42,0.08-0.84,0.12-1.26,0.12h-30.23c-0.43,0-0.85-0.04-1.26-0.12c-0.42-0.08-0.82-0.21-1.22-0.37s-0.77-0.36-1.12-0.6
		c-0.35-0.24-0.68-0.5-0.98-0.81c-0.3-0.3-0.57-0.63-0.81-0.98s-0.44-0.73-0.6-1.12c-0.16-0.39-0.29-0.8-0.37-1.22
		c-0.08-0.42-0.12-0.84-0.12-1.26v-59.02c0-0.43,0.04-0.85,0.12-1.26c0.08-0.42,0.21-0.82,0.37-1.22c0.16-0.39,0.36-0.77,0.6-1.12
		s0.5-0.68,0.81-0.98c0.3-0.3,0.63-0.57,0.98-0.81c0.35-0.24,0.73-0.44,1.12-0.6s0.8-0.29,1.22-0.37
		C113.96,108.37,114.38,108.33,114.81,108.33z"/>
	<path class="st0" d="M114.81,108.33h30.23c0.43,0,0.85,0.04,1.26,0.12c0.42,0.08,0.82,0.21,1.22,0.37c0.39,0.16,0.77,0.36,1.12,0.6
		c0.35,0.24,0.68,0.5,0.98,0.81s0.57,0.63,0.81,0.98s0.44,0.73,0.6,1.12c0.16,0.39,0.29,0.8,0.37,1.22
		c0.08,0.42,0.12,0.84,0.12,1.26v59.02c0,0.43-0.04,0.85-0.12,1.26c-0.08,0.42-0.21,0.82-0.37,1.22c-0.16,0.39-0.36,0.77-0.6,1.12
		s-0.5,0.68-0.81,0.98c-0.3,0.3-0.63,0.57-0.98,0.81s-0.73,0.44-1.12,0.6c-0.39,0.16-0.8,0.29-1.22,0.37
		c-0.42,0.08-0.84,0.12-1.26,0.12h-30.23c-0.43,0-0.85-0.04-1.26-0.12c-0.42-0.08-0.82-0.21-1.22-0.37s-0.77-0.36-1.12-0.6
		c-0.35-0.24-0.68-0.5-0.98-0.81c-0.3-0.3-0.57-0.63-0.81-0.98s-0.44-0.73-0.6-1.12c-0.16-0.39-0.29-0.8-0.37-1.22
		c-0.08-0.42-0.12-0.84-0.12-1.26v-59.02c0-0.43,0.04-0.85,0.12-1.26c0.08-0.42,0.21-0.82,0.37-1.22c0.16-0.39,0.36-0.77,0.6-1.12
		s0.5-0.68,0.81-0.98c0.3-0.3,0.63-0.57,0.98-0.81c0.35-0.24,0.73-0.44,1.12-0.6s0.8-0.29,1.22-0.37
		C113.96,108.37,114.38,108.33,114.81,108.33z"/>
	<line class="st1" x1="119.13" y1="115.53" x2="140.72" y2="115.53"/>
	<line class="st1" x1="119.13" y1="122.73" x2="140.72" y2="122.73"/>
	<line class="st1" x1="119.13" y1="129.93" x2="140.72" y2="129.93"/>
	<path class="st4" d="M90.06,197.95h2.8c0.2,0,0.3-0.1,0.3-0.29v-0.03c0-0.18-0.1-0.28-0.3-0.28h-2.5v-4.72
		c0-0.21-0.1-0.29-0.29-0.29h-0.09c-0.18,0-0.28,0.09-0.28,0.29v4.95C89.71,197.8,89.84,197.95,90.06,197.95z"/>
	<path class="st4" d="M97.26,195.9c0,0.94-0.62,1.62-1.48,1.62c-0.86,0-1.49-0.68-1.49-1.63s0.63-1.62,1.49-1.62
		S97.26,194.95,97.26,195.9z M93.69,195.88c0,1.25,0.86,2.16,2.09,2.16c1.23,0,2.09-0.9,2.09-2.14c0-1.26-0.86-2.17-2.08-2.17
		C94.55,193.73,93.69,194.63,93.69,195.88z"/>
	<path class="st4" d="M98.73,197.68c0,0.23,0.11,0.29,0.27,0.29h0.08c0.16,0,0.27-0.07,0.27-0.29v-1.8l1.85,1.87
		c0.13,0.16,0.25,0.22,0.38,0.23c0.23,0.01,0.35-0.22,0.34-0.28l-1.92-1.94l1.69-1.71c0.02-0.05-0.1-0.27-0.33-0.26
		c-0.11,0.01-0.25,0.08-0.38,0.23l-1.63,1.68v-3.09c0-0.45-0.2-0.55-0.4-0.55c-0.12,0-0.22,0.04-0.22,0.07V197.68z"/>
	<path class="st4" d="M105.14,196.33c0,0.7-0.6,1.24-1.4,1.24c-0.55,0-0.9-0.27-0.9-0.7c0-0.63,0.65-0.89,2.15-0.92l0.15-0.01
		V196.33z M102.22,196.88c0,0.7,0.54,1.15,1.4,1.15c0.69,0,1.25-0.33,1.53-0.83c0,0.13,0.01,0.26,0.02,0.38
		c0.03,0.31,0.18,0.4,0.36,0.4c0.11,0,0.22-0.04,0.22-0.07v-2.55c0-1.02-0.6-1.63-1.69-1.63c-0.68,0-1.16,0.23-1.43,0.49
		c-0.16,0.16-0.25,0.34-0.25,0.46c0,0.31,0.36,0.33,0.38,0.32c0.21-0.41,0.6-0.73,1.26-0.73c0.71,0,1.11,0.39,1.11,1.09v0.17h-0.1
		C103.1,195.55,102.22,195.95,102.22,196.88z"/>
	<path class="st4" d="M107.15,197.97h0.07c0.16,0,0.28-0.07,0.28-0.29v-5.07c0-0.45-0.2-0.55-0.4-0.55c-0.12,0-0.22,0.04-0.22,0.07
		v5.55C106.87,197.9,106.98,197.97,107.15,197.97z"/>
	<path class="st4" d="M111.7,195.57h-2.7c0.11-0.79,0.67-1.34,1.43-1.34S111.66,194.77,111.7,195.57z M108.38,195.91
		c0,1.26,0.85,2.13,2.1,2.13c0.64,0,1.11-0.22,1.37-0.44c0.22-0.18,0.33-0.38,0.33-0.51c0-0.28-0.32-0.35-0.35-0.33
		c-0.21,0.4-0.57,0.76-1.34,0.76c-0.83,0-1.43-0.55-1.5-1.38c-0.01-0.04-0.01-0.09-0.01-0.12h3.12c0.16,0,0.22-0.05,0.22-0.2v-0.06
		c0-1.22-0.74-2.03-1.89-2.03C109.24,193.73,108.38,194.66,108.38,195.91z"/>
	<path class="st4" d="M114.82,193.73c-0.53,0-0.91,0.3-1.07,0.92c0-0.16-0.01-0.3-0.02-0.45c-0.03-0.33-0.19-0.41-0.36-0.41
		c-0.13,0-0.22,0.05-0.22,0.07v3.82c0,0.22,0.11,0.29,0.29,0.29h0.07c0.16,0,0.27-0.08,0.27-0.29v-1.63c0-1.04,0.31-1.7,0.98-1.7
		c0.22,0,0.39,0.07,0.49,0.17c0.02,0.02,0.19-0.09,0.19-0.34C115.44,193.91,115.2,193.73,114.82,193.73z"/>
	<path class="st4" d="M118.63,195.61l0.99-2.63l0.98,2.63H118.63z M117.48,197.97c0.15,0.02,0.31-0.04,0.39-0.29l0.6-1.53h2.31
		l0.59,1.52c0.09,0.24,0.24,0.32,0.41,0.3c0.2-0.01,0.35-0.14,0.34-0.19l-2.01-5.25c-0.05-0.14-0.16-0.22-0.47-0.22
		c-0.3,0-0.41,0.08-0.47,0.22l-2,5.25C117.14,197.83,117.29,197.96,117.48,197.97z"/>
	<path class="st4" d="M124.77,197.51c-0.76,0-1.38-0.59-1.38-1.35v-0.92c0.23-0.6,0.71-0.99,1.4-0.99c0.8,0,1.4,0.67,1.4,1.62
		C126.18,196.86,125.61,197.51,124.77,197.51z M124.9,193.73c-0.72,0-1.21,0.35-1.51,0.88c0-0.11-0.01-0.25-0.01-0.35
		c-0.03-0.36-0.2-0.47-0.38-0.47c-0.12,0-0.22,0.05-0.22,0.07v5.46c0,0.22,0.11,0.29,0.28,0.29h0.07c0.16,0,0.27-0.08,0.27-0.29
		v-2.14c0.22,0.45,0.73,0.86,1.49,0.86c1.11,0,1.92-0.88,1.92-2.17C126.8,194.59,125.98,193.73,124.9,193.73z"/>
	<path class="st4" d="M130.3,196.33c0,0.7-0.6,1.24-1.4,1.24c-0.55,0-0.9-0.27-0.9-0.7c0-0.63,0.65-0.89,2.15-0.92l0.15-0.01V196.33
		z M127.38,196.88c0,0.7,0.54,1.15,1.4,1.15c0.69,0,1.25-0.33,1.53-0.83c0,0.13,0.01,0.26,0.02,0.38c0.03,0.31,0.18,0.4,0.36,0.4
		c0.11,0,0.22-0.04,0.22-0.07v-2.55c0-1.02-0.6-1.63-1.69-1.63c-0.68,0-1.16,0.23-1.43,0.49c-0.16,0.16-0.25,0.34-0.25,0.46
		c0,0.31,0.36,0.33,0.38,0.32c0.21-0.41,0.6-0.73,1.26-0.73c0.71,0,1.11,0.39,1.11,1.09v0.17h-0.1
		C128.27,195.55,127.38,195.95,127.38,196.88z"/>
	<path class="st4" d="M131.73,195.87c0,1.26,0.86,2.17,2.07,2.17c0.66,0,1.11-0.22,1.38-0.51c0.23-0.22,0.34-0.47,0.34-0.6
		c0-0.29-0.38-0.34-0.4-0.3c-0.18,0.48-0.56,0.88-1.3,0.88c-0.87,0-1.48-0.68-1.48-1.63c0-0.93,0.61-1.61,1.48-1.61
		c0.75,0,1.12,0.41,1.3,0.88c0.03,0.03,0.4-0.02,0.4-0.29c0-0.16-0.1-0.41-0.34-0.62c-0.28-0.27-0.73-0.5-1.37-0.5
		C132.59,193.73,131.73,194.64,131.73,195.87z"/>
	<path class="st4" d="M138.35,193.73c-0.65,0-1.13,0.34-1.39,0.85v-1.97c0-0.45-0.2-0.55-0.4-0.55c-0.12,0-0.22,0.04-0.22,0.07v5.55
		c0,0.22,0.11,0.29,0.28,0.29h0.08c0.16,0,0.27-0.07,0.27-0.29v-2.12c0.01-0.77,0.54-1.27,1.27-1.27c0.7,0,1.09,0.48,1.09,1.28v2.11
		c0,0.22,0.11,0.29,0.28,0.29h0.08c0.16,0,0.27-0.07,0.27-0.29v-2.15C139.94,194.47,139.43,193.73,138.35,193.73z"/>
	<path class="st4" d="M144.07,195.57h-2.7c0.11-0.79,0.67-1.34,1.43-1.34S144.04,194.77,144.07,195.57z M140.76,195.91
		c0,1.26,0.85,2.13,2.1,2.13c0.64,0,1.11-0.22,1.37-0.44c0.22-0.18,0.33-0.38,0.33-0.51c0-0.28-0.32-0.35-0.35-0.33
		c-0.21,0.4-0.57,0.76-1.34,0.76c-0.83,0-1.43-0.55-1.5-1.38c-0.01-0.04-0.01-0.09-0.01-0.12h3.12c0.16,0,0.22-0.05,0.22-0.2v-0.06
		c0-1.22-0.74-2.03-1.89-2.03C141.61,193.73,140.76,194.66,140.76,195.91z"/>
	<path class="st4" d="M147.03,197.45c0.32,0.32,0.91,0.59,1.73,0.59c1.19,0,1.96-0.62,1.96-1.6c0-1.07-0.89-1.41-1.8-1.62
		c-0.8-0.2-1.39-0.34-1.39-1.02c0-0.6,0.52-0.99,1.25-0.99c0.74,0,1.25,0.39,1.49,0.82c0.02,0.03,0.32-0.12,0.32-0.37
		c0-0.15-0.1-0.33-0.27-0.49c-0.29-0.27-0.82-0.5-1.55-0.5c-1.09,0-1.88,0.64-1.88,1.55c0,1.08,0.85,1.36,1.7,1.58
		c0.79,0.19,1.48,0.36,1.48,1.08c0,0.64-0.51,1.02-1.33,1.02c-0.87,0-1.42-0.46-1.68-0.93c-0.03-0.03-0.31,0.13-0.31,0.36
		C146.76,197.07,146.84,197.27,147.03,197.45z"/>
	<path class="st4" d="M154.66,195.57h-2.7c0.11-0.79,0.67-1.34,1.43-1.34S154.63,194.77,154.66,195.57z M151.35,195.91
		c0,1.26,0.85,2.13,2.1,2.13c0.64,0,1.11-0.22,1.37-0.44c0.22-0.18,0.33-0.38,0.33-0.51c0-0.28-0.32-0.35-0.35-0.33
		c-0.21,0.4-0.57,0.76-1.34,0.76c-0.83,0-1.43-0.55-1.5-1.38c-0.01-0.04-0.01-0.09-0.01-0.12h3.12c0.16,0,0.22-0.05,0.22-0.2v-0.06
		c0-1.22-0.74-2.03-1.89-2.03C152.2,193.73,151.35,194.66,151.35,195.91z"/>
	<path class="st4" d="M157.79,193.73c-0.53,0-0.91,0.3-1.07,0.92c0-0.16-0.01-0.3-0.02-0.45c-0.03-0.33-0.19-0.41-0.36-0.41
		c-0.13,0-0.22,0.05-0.22,0.07v3.82c0,0.22,0.11,0.29,0.29,0.29h0.07c0.16,0,0.27-0.08,0.27-0.29v-1.63c0-1.04,0.31-1.7,0.98-1.7
		c0.22,0,0.39,0.07,0.49,0.17c0.02,0.02,0.19-0.09,0.19-0.34C158.4,193.91,158.16,193.73,157.79,193.73z"/>
	<path class="st4" d="M160.16,197.79c0.06,0.15,0.16,0.2,0.4,0.2c0.23,0,0.35-0.06,0.41-0.22l1.51-3.8c0-0.05-0.13-0.17-0.31-0.18
		c-0.15-0.01-0.3,0.08-0.41,0.38l-1.19,3.22l-1.18-3.22c-0.1-0.29-0.24-0.38-0.41-0.39c-0.18,0-0.33,0.14-0.33,0.19L160.16,197.79z"
		/>
	<path class="st4" d="M166.19,195.57h-2.7c0.11-0.79,0.67-1.34,1.43-1.34S166.16,194.77,166.19,195.57z M162.88,195.91
		c0,1.26,0.85,2.13,2.1,2.13c0.64,0,1.11-0.22,1.37-0.44c0.22-0.18,0.33-0.38,0.33-0.51c0-0.28-0.32-0.35-0.35-0.33
		c-0.21,0.4-0.57,0.76-1.34,0.76c-0.83,0-1.43-0.55-1.5-1.38c-0.01-0.04-0.01-0.09-0.01-0.12h3.12c0.16,0,0.22-0.05,0.22-0.2v-0.06
		c0-1.22-0.74-2.03-1.89-2.03C163.73,193.73,162.88,194.66,162.88,195.91z"/>
	<path class="st4" d="M169.32,193.73c-0.53,0-0.91,0.3-1.07,0.92c0-0.16-0.01-0.3-0.02-0.45c-0.03-0.33-0.19-0.41-0.36-0.41
		c-0.13,0-0.22,0.05-0.22,0.07v3.82c0,0.22,0.11,0.29,0.29,0.29H168c0.16,0,0.27-0.08,0.27-0.29v-1.63c0-1.04,0.31-1.7,0.98-1.7
		c0.22,0,0.39,0.07,0.49,0.17c0.02,0.02,0.19-0.09,0.19-0.34C169.93,193.91,169.69,193.73,169.32,193.73z"/>
	<line class="st1" x1="245.36" y1="144.32" x2="276.5" y2="144.32"/>
	<polygon points="241.58,144.32 246.62,141.8 245.36,144.32 246.62,146.84 	"/>
	<polygon class="st1" points="241.58,144.32 246.62,141.8 245.36,144.32 246.62,146.84 	"/>
	<polygon points="280.28,144.32 275.24,146.84 276.5,144.32 275.24,141.8 	"/>
	<polygon class="st1" points="280.28,144.32 275.24,146.84 276.5,144.32 275.24,141.8 	"/>
	<line class="st1" x1="219.18" y1="114.54" x2="219.18" y2="84.12"/>
	<polygon points="219.18,118.32 216.66,113.28 219.18,114.54 221.7,113.28 	"/>
	<polygon class="st1" points="219.18,118.32 216.66,113.28 219.18,114.54 221.7,113.28 	"/>
	<polygon points="219.18,80.34 221.7,85.38 219.18,84.12 216.66,85.38 	"/>
	<polygon class="st1" points="219.18,80.34 221.7,85.38 219.18,84.12 216.66,85.38 	"/>
	<polygon class="st2" points="197.59,119.13 230.7,119.13 240.78,129.21 240.78,169.51 197.59,169.51 	"/>
	<polygon class="st3" points="197.59,119.13 230.7,119.13 240.78,129.21 240.78,169.51 197.59,169.51 	"/>
	<polygon class="st5" points="230.7,119.13 230.7,129.21 240.78,129.21 	"/>
	<polyline class="st3" points="230.7,119.13 230.7,129.21 240.78,129.21 	"/>
	<path class="st4" d="M216.36,155.42c0.34,0,0.58-0.22,0.58-0.56c0-0.22-0.14-0.45-0.2-0.47c-2.21-0.54-3.01-2.32-3.11-5.45
		l-2.05-1.17l2.05-1.17c0.11-3.11,0.9-4.89,3.11-5.43c0.05-0.02,0.2-0.27,0.2-0.47c0-0.36-0.23-0.58-0.58-0.58
		c-0.67,0-1.51,0.38-2.3,1.21c-0.85,0.92-1.57,2.48-1.67,4.66l-1.13,0.67c-0.61,0.34-0.79,0.49-0.79,1.12
		c0,0.65,0.18,0.77,0.79,1.12l1.13,0.67c0.11,2.2,0.83,3.78,1.69,4.68C214.84,155.05,215.71,155.42,216.36,155.42z"/>
	<path class="st4" d="M221.27,155.42c0.65,0,1.53-0.4,2.32-1.24c0.85-0.9,1.53-2.47,1.64-4.62l1.15-0.67
		c0.61-0.32,0.79-0.47,0.79-1.12c0-0.63-0.2-0.77-0.79-1.12l-1.15-0.67c-0.11-2.14-0.79-3.71-1.64-4.62
		c-0.79-0.85-1.67-1.24-2.32-1.24c-0.38,0-0.59,0.22-0.59,0.58c0,0.2,0.14,0.45,0.2,0.47c2.21,0.54,3.02,2.32,3.11,5.43l2.05,1.17
		l-2.05,1.17c-0.09,3.13-0.9,4.91-3.11,5.45c-0.05,0.02-0.2,0.25-0.2,0.47C220.67,155.21,220.89,155.42,221.27,155.42z"/>
	<path class="st4" d="M202.18,195.3h-1.11v-2.39h1.11c0.93,0,1.42,0.41,1.42,1.19C203.6,194.87,203.12,195.3,202.18,195.3z
		 M200.7,197.97h0.09c0.19,0,0.29-0.12,0.29-0.29v-1.84h1.09c1.38,0,2.1-0.62,2.1-1.75c0-1.11-0.74-1.73-2.06-1.73h-1.42
		c-0.22,0-0.35,0.16-0.35,0.38v4.94C200.42,197.87,200.52,197.97,200.7,197.97z"/>
	<path class="st4" d="M205.43,197.97h0.09c0.19,0,0.29-0.1,0.29-0.29v-2.25h3.19v2.25c0,0.19,0.09,0.29,0.27,0.29h0.1
		c0.19,0,0.29-0.1,0.29-0.29v-5.05c0-0.2-0.1-0.29-0.29-0.29h-0.1c-0.18,0-0.27,0.1-0.27,0.29v2.23h-3.19v-2.23
		c0-0.2-0.1-0.29-0.29-0.29h-0.09c-0.18,0-0.28,0.1-0.28,0.29v5.05C205.16,197.87,205.25,197.97,205.43,197.97z"/>
	<path class="st4" d="M212.65,195.3h-1.11v-2.39h1.11c0.93,0,1.42,0.41,1.42,1.19C214.08,194.87,213.59,195.3,212.65,195.3z
		 M211.18,197.97h0.09c0.19,0,0.29-0.12,0.29-0.29v-1.84h1.09c1.38,0,2.1-0.62,2.1-1.75c0-1.11-0.74-1.73-2.06-1.73h-1.42
		c-0.22,0-0.35,0.16-0.35,0.38v4.94C210.9,197.87,210.99,197.97,211.18,197.97z"/>
	<path class="st4" d="M215.36,195.86c0,0.16,0.1,0.25,0.29,0.25h1.85c0.2,0,0.29-0.09,0.29-0.25v-0.07c0-0.17-0.1-0.26-0.29-0.26
		h-1.85c-0.19,0-0.29,0.09-0.29,0.26V195.86z"/>
	<path class="st4" d="M218.54,195.17c0,1.69,1.09,2.88,2.72,2.88c0.79,0,1.39-0.29,1.73-0.6c0.29-0.26,0.42-0.55,0.42-0.73
		c0-0.33-0.41-0.39-0.43-0.36c-0.21,0.61-0.8,1.11-1.69,1.11c-1.23,0-2.07-0.95-2.07-2.31c0-1.38,0.84-2.32,2.06-2.32
		c0.73,0,1.37,0.4,1.66,0.99c0.03,0.03,0.41-0.04,0.41-0.37c0-0.16-0.13-0.41-0.37-0.61c-0.33-0.3-0.89-0.58-1.68-0.58
		C219.64,192.26,218.54,193.46,218.54,195.17z"/>
	<path class="st4" d="M227.55,195.9c0,0.94-0.62,1.62-1.48,1.62c-0.86,0-1.49-0.68-1.49-1.63s0.63-1.62,1.49-1.62
		S227.55,194.95,227.55,195.9z M223.98,195.88c0,1.25,0.86,2.16,2.09,2.16c1.23,0,2.09-0.9,2.09-2.14c0-1.26-0.86-2.17-2.08-2.17
		C224.84,193.73,223.98,194.63,223.98,195.88z"/>
	<path class="st4" d="M232.16,196.17c0,0.77-0.62,1.35-1.39,1.35c-0.81,0-1.39-0.67-1.39-1.63c0-0.98,0.57-1.62,1.4-1.62
		c0.7,0,1.16,0.39,1.38,0.98V196.17z M230.65,198.04c0.73,0,1.22-0.35,1.51-0.88c0,0.19,0,0.36,0.01,0.54
		c0,0.21,0.11,0.28,0.27,0.28h0.06c0.16,0,0.28-0.07,0.28-0.29v-5.07c0-0.45-0.2-0.55-0.41-0.55c-0.12,0-0.22,0.04-0.22,0.07v2.4
		c-0.23-0.42-0.75-0.79-1.49-0.79c-1.11,0-1.92,0.87-1.92,2.15C228.75,197.18,229.57,198.04,230.65,198.04z"/>
	<path class="st4" d="M236.94,195.57h-2.7c0.11-0.79,0.67-1.34,1.43-1.34C236.42,194.23,236.91,194.77,236.94,195.57z
		 M233.63,195.91c0,1.26,0.85,2.13,2.1,2.13c0.64,0,1.11-0.22,1.37-0.44c0.22-0.18,0.33-0.38,0.33-0.51c0-0.28-0.32-0.35-0.35-0.33
		c-0.21,0.4-0.57,0.76-1.34,0.76c-0.83,0-1.43-0.55-1.5-1.38c-0.01-0.04-0.01-0.09-0.01-0.12h3.12c0.16,0,0.22-0.05,0.22-0.2v-0.06
		c0-1.22-0.74-2.03-1.89-2.03C234.48,193.73,233.63,194.66,233.63,195.91z"/>
	<path class="st4" d="M188.6,17.21c0,0.34,0.52,0.88,1.42,0.88c1.12,0,1.65-0.61,1.65-1.91v-3.51c0-0.2-0.1-0.29-0.28-0.29h-0.09
		c-0.19,0-0.29,0.1-0.29,0.29v3.51c0,0.95-0.31,1.34-1.04,1.34c-0.5,0-0.89-0.29-1.07-0.67C188.89,16.82,188.6,16.96,188.6,17.21z"
		/>
	<path class="st4" d="M195.43,16.38c0,0.7-0.6,1.24-1.4,1.24c-0.55,0-0.9-0.27-0.9-0.7c0-0.63,0.65-0.89,2.15-0.92l0.15-0.01V16.38z
		 M192.51,16.93c0,0.7,0.54,1.15,1.4,1.15c0.69,0,1.25-0.33,1.53-0.83c0,0.13,0.01,0.26,0.02,0.38c0.03,0.31,0.18,0.4,0.36,0.4
		c0.11,0,0.22-0.04,0.22-0.07v-2.55c0-1.02-0.6-1.63-1.69-1.63c-0.68,0-1.16,0.23-1.43,0.49c-0.16,0.16-0.25,0.34-0.25,0.46
		c0,0.31,0.36,0.33,0.38,0.32c0.21-0.41,0.6-0.73,1.26-0.73c0.71,0,1.11,0.39,1.11,1.09v0.17h-0.1
		C193.39,15.6,192.51,16,192.51,16.93z"/>
	<path class="st4" d="M198.13,17.84c0.06,0.15,0.16,0.2,0.4,0.2s0.35-0.06,0.41-0.22l1.51-3.8c0-0.05-0.13-0.17-0.31-0.18
		c-0.15-0.01-0.3,0.08-0.41,0.38l-1.19,3.22l-1.18-3.22c-0.1-0.29-0.24-0.38-0.41-0.39c-0.18,0-0.33,0.14-0.33,0.19L198.13,17.84z"
		/>
	<path class="st4" d="M203.77,16.38c0,0.7-0.6,1.24-1.4,1.24c-0.55,0-0.9-0.27-0.9-0.7c0-0.63,0.65-0.89,2.15-0.92l0.15-0.01V16.38z
		 M200.85,16.93c0,0.7,0.54,1.15,1.4,1.15c0.69,0,1.25-0.33,1.53-0.83c0,0.13,0.01,0.26,0.02,0.38c0.03,0.31,0.18,0.4,0.36,0.4
		c0.11,0,0.22-0.04,0.22-0.07v-2.55c0-1.02-0.6-1.63-1.69-1.63c-0.68,0-1.16,0.23-1.43,0.49c-0.16,0.16-0.25,0.34-0.25,0.46
		c0,0.31,0.36,0.33,0.38,0.32c0.21-0.41,0.6-0.73,1.26-0.73c0.71,0,1.11,0.39,1.11,1.09v0.17h-0.1
		C201.73,15.6,200.85,16,200.85,16.93z"/>
	<path class="st4" d="M205.48,17.5c0.32,0.32,0.91,0.59,1.73,0.59c1.19,0,1.96-0.62,1.96-1.6c0-1.07-0.89-1.41-1.8-1.62
		c-0.8-0.2-1.39-0.34-1.39-1.02c0-0.6,0.52-0.99,1.25-0.99c0.74,0,1.25,0.39,1.49,0.82c0.02,0.03,0.32-0.12,0.32-0.37
		c0-0.15-0.1-0.33-0.27-0.49c-0.29-0.27-0.82-0.5-1.55-0.5c-1.09,0-1.88,0.64-1.88,1.55c0,1.08,0.85,1.36,1.7,1.58
		c0.79,0.19,1.48,0.36,1.48,1.08c0,0.64-0.51,1.02-1.33,1.02c-0.87,0-1.42-0.46-1.68-0.93c-0.03-0.03-0.31,0.13-0.31,0.36
		C205.22,17.12,205.3,17.32,205.48,17.5z"/>
	<path class="st4" d="M209.8,15.92c0,1.26,0.86,2.17,2.07,2.17c0.66,0,1.11-0.22,1.38-0.51c0.23-0.22,0.34-0.47,0.34-0.6
		c0-0.29-0.38-0.34-0.4-0.3c-0.18,0.48-0.56,0.88-1.3,0.88c-0.87,0-1.48-0.68-1.48-1.63c0-0.93,0.61-1.61,1.48-1.61
		c0.75,0,1.12,0.41,1.3,0.88c0.03,0.03,0.4-0.02,0.4-0.29c0-0.16-0.1-0.41-0.34-0.62c-0.28-0.27-0.73-0.5-1.37-0.5
		C210.67,13.78,209.8,14.69,209.8,15.92z"/>
	<path class="st4" d="M216.09,13.78c-0.53,0-0.91,0.3-1.07,0.92c0-0.16-0.01-0.3-0.02-0.45c-0.03-0.33-0.19-0.41-0.36-0.41
		c-0.13,0-0.22,0.05-0.22,0.07v3.82c0,0.22,0.11,0.29,0.29,0.29h0.07c0.16,0,0.27-0.08,0.27-0.29v-1.63c0-1.04,0.31-1.7,0.98-1.7
		c0.22,0,0.39,0.07,0.49,0.17c0.02,0.02,0.19-0.09,0.19-0.34C216.7,13.96,216.46,13.78,216.09,13.78z"/>
	<path class="st4" d="M217.42,17.73c0,0.22,0.11,0.29,0.28,0.29h0.07c0.16,0,0.28-0.07,0.28-0.29v-3.58c0-0.23-0.11-0.3-0.28-0.3
		h-0.07c-0.16,0-0.28,0.08-0.28,0.3V17.73z M217.34,12.58c0,0.25,0.15,0.39,0.39,0.39c0.25,0,0.41-0.14,0.41-0.39
		c0-0.26-0.15-0.4-0.4-0.4S217.34,12.32,217.34,12.58z"/>
	<path class="st4" d="M221.19,17.56c-0.76,0-1.38-0.59-1.38-1.35V15.3c0.23-0.6,0.71-0.99,1.4-0.99c0.8,0,1.4,0.67,1.4,1.62
		C222.6,16.91,222.03,17.56,221.19,17.56z M221.32,13.78c-0.72,0-1.21,0.35-1.51,0.88c0-0.11-0.01-0.25-0.01-0.35
		c-0.03-0.36-0.2-0.47-0.38-0.47c-0.12,0-0.22,0.05-0.22,0.07v5.46c0,0.22,0.11,0.29,0.28,0.29h0.07c0.16,0,0.27-0.08,0.27-0.29
		v-2.14c0.22,0.45,0.73,0.86,1.49,0.86c1.11,0,1.92-0.88,1.92-2.17C223.22,14.64,222.4,13.78,221.32,13.78z"/>
	<path class="st4" d="M225.39,18.09c0.34,0,0.57-0.1,0.72-0.24c0.11-0.1,0.16-0.22,0.16-0.32c0-0.22-0.15-0.3-0.17-0.29
		c-0.13,0.19-0.34,0.32-0.61,0.32c-0.43,0-0.61-0.26-0.61-0.86v-2.3h1.05c0.2,0,0.28-0.09,0.28-0.24v-0.05
		c0-0.16-0.08-0.23-0.27-0.23h-1.05v-0.73c0-0.22-0.1-0.3-0.27-0.3h-0.07c-0.16,0-0.28,0.09-0.28,0.3v0.73h-0.41
		c-0.2,0-0.27,0.09-0.27,0.23v0.06c0,0.15,0.07,0.23,0.27,0.23h0.41v2.39C224.26,17.67,224.63,18.09,225.39,18.09z"/>
	<path class="st4" d="M226.75,15.9c0,0.16,0.1,0.25,0.29,0.25h1.85c0.2,0,0.29-0.09,0.29-0.25v-0.07c0-0.17-0.1-0.26-0.29-0.26
		h-1.85c-0.19,0-0.29,0.09-0.29,0.26V15.9z"/>
	<path class="st4" d="M229.93,15.21c0,1.69,1.09,2.88,2.72,2.88c0.79,0,1.39-0.29,1.73-0.6c0.29-0.26,0.42-0.55,0.42-0.73
		c0-0.33-0.41-0.39-0.43-0.36c-0.21,0.61-0.8,1.11-1.69,1.11c-1.23,0-2.07-0.95-2.07-2.31c0-1.38,0.84-2.32,2.06-2.32
		c0.73,0,1.37,0.4,1.66,0.99c0.03,0.03,0.41-0.04,0.41-0.37c0-0.16-0.13-0.41-0.37-0.61c-0.33-0.3-0.89-0.58-1.68-0.58
		C231.03,12.31,229.93,13.51,229.93,15.21z"/>
	<path class="st4" d="M238.95,15.95c0,0.94-0.62,1.62-1.48,1.62c-0.86,0-1.49-0.68-1.49-1.63s0.63-1.62,1.49-1.62
		S238.95,15,238.95,15.95z M235.37,15.93c0,1.25,0.86,2.16,2.09,2.16c1.23,0,2.09-0.9,2.09-2.14c0-1.26-0.86-2.17-2.08-2.17
		C236.23,13.78,235.37,14.68,235.37,15.93z"/>
	<path class="st4" d="M243.55,16.22c0,0.77-0.62,1.35-1.39,1.35c-0.81,0-1.39-0.67-1.39-1.63c0-0.98,0.57-1.62,1.4-1.62
		c0.7,0,1.16,0.39,1.38,0.98V16.22z M242.05,18.09c0.73,0,1.22-0.35,1.51-0.88c0,0.19,0,0.36,0.01,0.54c0,0.21,0.11,0.28,0.27,0.28
		h0.06c0.16,0,0.28-0.07,0.28-0.29v-5.07c0-0.45-0.2-0.55-0.41-0.55c-0.12,0-0.22,0.04-0.22,0.07v2.4
		c-0.23-0.42-0.75-0.79-1.49-0.79c-1.11,0-1.92,0.87-1.92,2.15C240.15,17.23,240.96,18.09,242.05,18.09z"/>
	<path class="st4" d="M248.33,15.62h-2.7c0.11-0.79,0.67-1.34,1.43-1.34C247.81,14.28,248.3,14.82,248.33,15.62z M245.02,15.96
		c0,1.26,0.85,2.13,2.1,2.13c0.64,0,1.11-0.22,1.37-0.44c0.22-0.18,0.33-0.38,0.33-0.51c0-0.28-0.32-0.35-0.35-0.33
		c-0.21,0.4-0.57,0.76-1.34,0.76c-0.83,0-1.43-0.55-1.5-1.38c-0.01-0.04-0.01-0.09-0.01-0.12h3.12c0.16,0,0.22-0.05,0.22-0.2v-0.06
		c0-1.22-0.74-2.03-1.89-2.03C245.87,13.78,245.02,14.7,245.02,15.96z"/>
	<polygon class="st2" points="197.59,29.15 230.7,29.15 240.78,39.23 240.78,79.54 197.59,79.54 	"/>
	<polygon class="st3" points="197.59,29.15 230.7,29.15 240.78,39.23 240.78,79.54 197.59,79.54 	"/>
	<polygon class="st5" points="230.7,29.15 230.7,39.23 240.78,39.23 	"/>
	<polyline class="st3" points="230.7,29.15 230.7,39.23 240.78,39.23 	"/>
	<path class="st4" d="M216.36,65.45c0.34,0,0.58-0.22,0.58-0.56c0-0.22-0.14-0.45-0.2-0.47c-2.21-0.54-3.01-2.32-3.11-5.45
		l-2.05-1.17l2.05-1.17c0.11-3.11,0.9-4.89,3.11-5.43c0.05-0.02,0.2-0.27,0.2-0.47c0-0.36-0.23-0.58-0.58-0.58
		c-0.67,0-1.51,0.38-2.3,1.21c-0.85,0.92-1.57,2.48-1.67,4.66l-1.13,0.67c-0.61,0.34-0.79,0.49-0.79,1.12
		c0,0.65,0.18,0.77,0.79,1.12l1.13,0.67c0.11,2.2,0.83,3.78,1.69,4.68C214.84,65.07,215.71,65.45,216.36,65.45z"/>
	<path class="st4" d="M221.27,65.45c0.65,0,1.53-0.4,2.32-1.24c0.85-0.9,1.53-2.47,1.64-4.62l1.15-0.67
		c0.61-0.32,0.79-0.47,0.79-1.12c0-0.63-0.2-0.77-0.79-1.12l-1.15-0.67c-0.11-2.14-0.79-3.71-1.64-4.62
		c-0.79-0.85-1.67-1.24-2.32-1.24c-0.38,0-0.59,0.22-0.59,0.58c0,0.2,0.14,0.45,0.2,0.47c2.21,0.54,3.02,2.32,3.11,5.43l2.05,1.17
		l-2.05,1.17c-0.09,3.13-0.9,4.91-3.11,5.45c-0.05,0.02-0.2,0.25-0.2,0.47C220.67,65.23,220.89,65.45,221.27,65.45z"/>
	<polyline class="st1" points="372.05,144.32 385.46,144.32 398.87,144.32 	"/>
	<polygon points="368.27,144.32 373.31,141.8 372.05,144.32 373.31,146.84 	"/>
	<polygon class="st1" points="368.27,144.32 373.31,141.8 372.05,144.32 373.31,146.84 	"/>
	<polygon points="402.65,144.32 397.61,146.84 398.87,144.32 397.61,141.8 	"/>
	<polygon class="st1" points="402.65,144.32 397.61,146.84 398.87,144.32 397.61,141.8 	"/>
	<rect x="281.08" y="122.73" class="st2" width="86.38" height="43.19"/>
	<rect x="281.08" y="122.73" class="st0" width="86.38" height="43.19"/>
	<path class="st3" d="M358.82,122.73v43.19 M289.72,122.73v43.19"/>
</g>
<g>
	<path class="st6" d="M300.05,137.15c15.81,0,31.63,0,47.44,0c0,6.82,0,13.64,0,20.47c-5.93,0-11.86,0-17.79,0
		c-0.67-0.56-1.59-1.41-2.54-2.56c-2.13-2.58-2.41-4.26-3.39-4.26s-1.25,1.68-3.39,4.26c-0.95,1.15-1.87,2-2.54,2.56
		c-5.93,0-11.86,0-17.79,0C300.05,150.79,300.05,143.97,300.05,137.15z"/>
	<path class="st7" d="M347.49,137.15c-1.41-2.27-2.82-4.55-4.24-6.82c-12.99,0-25.98,0-38.97,0c-1.41,2.27-2.82,4.55-4.24,6.82"/>
	<path class="st6" d="M314.45,146.53c0,0.45-0.09,0.89-0.26,1.31c-0.17,0.42-0.42,0.79-0.73,1.11c-0.32,0.32-0.68,0.57-1.1,0.74
		s-0.85,0.26-1.3,0.26s-0.88-0.09-1.3-0.26s-0.78-0.42-1.1-0.74c-0.32-0.32-0.56-0.69-0.73-1.11c-0.17-0.42-0.26-0.85-0.26-1.31
		s0.09-0.89,0.26-1.31s0.42-0.79,0.73-1.11c0.32-0.32,0.68-0.57,1.1-0.74s0.85-0.26,1.3-0.26s0.88,0.09,1.3,0.26s0.78,0.42,1.1,0.74
		c0.32,0.32,0.56,0.69,0.73,1.11S314.45,146.07,314.45,146.53z"/>
	<path class="st6" d="M339.86,146.53c0,0.45-0.09,0.89-0.26,1.31c-0.17,0.42-0.42,0.79-0.73,1.11c-0.32,0.32-0.68,0.57-1.1,0.74
		c-0.42,0.17-0.85,0.26-1.3,0.26s-0.88-0.09-1.3-0.26s-0.78-0.42-1.1-0.74c-0.32-0.32-0.56-0.69-0.73-1.11
		c-0.17-0.42-0.26-0.85-0.26-1.31s0.09-0.89,0.26-1.31s0.42-0.79,0.73-1.11c0.32-0.32,0.68-0.57,1.1-0.74s0.85-0.26,1.3-0.26
		s0.88,0.09,1.3,0.26c0.42,0.17,0.78,0.42,1.1,0.74c0.32,0.32,0.56,0.69,0.73,1.11S339.86,146.07,339.86,146.53z"/>
</g>
<g>
	<path class="st4" d="M308.89,198c0.28,0,0.38-0.09,0.42-0.27l1.24-3.86l1.2,3.86c0.05,0.18,0.16,0.27,0.44,0.27
		c0.29,0,0.41-0.07,0.46-0.26l1.28-5.23c0.02-0.04-0.12-0.17-0.34-0.17c-0.16,0-0.31,0.09-0.37,0.38l-1.05,4.56l-1.18-3.81
		c-0.06-0.22-0.17-0.32-0.44-0.32c-0.26,0-0.39,0.11-0.45,0.32l-1.19,3.82l-1.02-4.57c-0.06-0.29-0.23-0.38-0.39-0.38
		c-0.22,0-0.36,0.13-0.36,0.17l1.3,5.23C308.48,197.93,308.6,198,308.89,198z"/>
	<path class="st4" d="M317.66,195.57h-2.7c0.11-0.79,0.67-1.34,1.43-1.34C317.13,194.23,317.62,194.77,317.66,195.57z
		 M314.34,195.91c0,1.26,0.85,2.13,2.1,2.13c0.64,0,1.11-0.22,1.37-0.44c0.22-0.18,0.33-0.38,0.33-0.51c0-0.28-0.32-0.35-0.35-0.33
		c-0.21,0.4-0.57,0.76-1.34,0.76c-0.83,0-1.43-0.55-1.5-1.38c-0.01-0.04-0.01-0.09-0.01-0.12h3.12c0.16,0,0.22-0.05,0.22-0.2v-0.06
		c0-1.22-0.74-2.03-1.89-2.03C315.2,193.73,314.34,194.66,314.34,195.91z"/>
	<path class="st4" d="M322.52,195.88c0,0.98-0.57,1.63-1.41,1.63c-0.77,0-1.38-0.58-1.39-1.33v-0.93c0.23-0.6,0.71-0.99,1.41-0.99
		C321.92,194.26,322.52,194.92,322.52,195.88z M319.72,197.19c0.22,0.46,0.73,0.86,1.49,0.86c1.11,0,1.92-0.88,1.92-2.17
		c0-1.29-0.82-2.14-1.88-2.14c-0.71,0-1.2,0.34-1.52,0.86v-1.98c0-0.45-0.2-0.55-0.4-0.55c-0.12,0-0.22,0.04-0.22,0.07v5.54
		c0,0.24,0.11,0.31,0.28,0.31h0.07c0.15,0,0.25-0.07,0.26-0.27V197.19z"/>
	<path class="st4" d="M323.92,197.61c0.27,0.23,0.73,0.43,1.41,0.43c1.01,0,1.64-0.5,1.64-1.25c0-0.85-0.81-1.03-1.49-1.17
		c-0.68-0.16-1.11-0.26-1.11-0.71c0-0.4,0.36-0.68,0.99-0.68c0.55,0,1,0.27,1.23,0.61c0.02,0.02,0.27-0.1,0.27-0.31
		c0-0.1-0.06-0.23-0.16-0.33c-0.23-0.25-0.68-0.47-1.35-0.47c-0.95,0-1.56,0.51-1.56,1.24c0,0.84,0.79,1.02,1.43,1.15
		c0.7,0.16,1.15,0.25,1.15,0.73c0,0.41-0.38,0.68-1.03,0.68c-0.67,0-1.14-0.28-1.4-0.65c-0.03-0.01-0.27,0.09-0.27,0.3
		C323.67,197.32,323.75,197.46,323.92,197.61z"/>
	<path class="st4" d="M330.88,195.57h-2.7c0.11-0.79,0.67-1.34,1.43-1.34C330.35,194.23,330.85,194.77,330.88,195.57z
		 M327.56,195.91c0,1.26,0.85,2.13,2.1,2.13c0.64,0,1.11-0.22,1.37-0.44c0.22-0.18,0.33-0.38,0.33-0.51c0-0.28-0.32-0.35-0.35-0.33
		c-0.21,0.4-0.57,0.76-1.34,0.76c-0.83,0-1.43-0.55-1.5-1.38c-0.01-0.04-0.01-0.09-0.01-0.12h3.12c0.16,0,0.22-0.05,0.22-0.2v-0.06
		c0-1.22-0.74-2.03-1.89-2.03C328.42,193.73,327.56,194.66,327.56,195.91z"/>
	<path class="st4" d="M332.38,197.68c0,0.22,0.11,0.29,0.28,0.29h0.07c0.16,0,0.28-0.07,0.28-0.29v-3.58c0-0.23-0.11-0.3-0.28-0.3
		h-0.07c-0.16,0-0.28,0.08-0.28,0.3V197.68z M332.3,192.53c0,0.25,0.15,0.39,0.39,0.39c0.25,0,0.41-0.14,0.41-0.39
		c0-0.26-0.15-0.4-0.4-0.4S332.3,192.27,332.3,192.53z"/>
	<path class="st4" d="M335.55,198.04c0.34,0,0.57-0.1,0.72-0.24c0.11-0.1,0.16-0.22,0.16-0.32c0-0.22-0.15-0.3-0.17-0.29
		c-0.13,0.19-0.34,0.32-0.61,0.32c-0.43,0-0.61-0.26-0.61-0.86v-2.3h1.05c0.2,0,0.28-0.09,0.28-0.24v-0.05
		c0-0.16-0.08-0.23-0.27-0.23h-1.05v-0.73c0-0.22-0.1-0.3-0.27-0.3h-0.07c-0.16,0-0.28,0.09-0.28,0.3v0.73h-0.41
		c-0.2,0-0.27,0.09-0.27,0.23v0.06c0,0.15,0.07,0.23,0.27,0.23h0.41v2.39C334.41,197.62,334.79,198.04,335.55,198.04z"/>
	<path class="st4" d="M340.17,195.57h-2.7c0.11-0.79,0.67-1.34,1.43-1.34C339.64,194.23,340.13,194.77,340.17,195.57z
		 M336.85,195.91c0,1.26,0.85,2.13,2.1,2.13c0.64,0,1.11-0.22,1.37-0.44c0.22-0.18,0.33-0.38,0.33-0.51c0-0.28-0.32-0.35-0.35-0.33
		c-0.21,0.4-0.57,0.76-1.34,0.76c-0.83,0-1.43-0.55-1.5-1.38c-0.01-0.04-0.01-0.09-0.01-0.12h3.12c0.16,0,0.22-0.05,0.22-0.2v-0.06
		c0-1.22-0.74-2.03-1.89-2.03C337.7,193.73,336.85,194.66,336.85,195.91z"/>
	<path class="st4" d="M424.91,122.76c-6.13,0-11.14,5-11.14,11.14c0,3.48,1.61,6.59,4.12,8.64c-4.05,1.14-7.47,3.91-9.12,5.73
		c-0.01,0.01-0.01,0.02-0.02,0.04c-3.79,4.61-5.3,8.17-5.3,16.75c0,0.46,0.37,0.83,0.83,0.83h41.3c0.45,0,0.81-0.35,0.83-0.8
		c0.23-7.21-1.18-11.27-4.21-15.39c-0.01-0.01-0.01-0.01-0.02-0.02c-1.37-1.73-3.38-3.61-5.62-5.06c-1.45-0.94-2.99-1.71-4.55-2.13
		c2.46-2.04,4.04-5.13,4.04-8.58C436.04,127.76,431.06,122.76,424.91,122.76z M424.91,124.42c5.25,0,9.49,4.23,9.49,9.48
		c0,3.53-1.93,6.61-4.79,8.25c-0.04,0-0.09-0.01-0.12-0.01v0.07c-1.36,0.74-2.91,1.17-4.57,1.17c-5.24,0-9.48-4.23-9.48-9.48
		C415.43,128.65,419.67,124.42,424.91,124.42z M419.83,143.8c1.53,0.78,3.25,1.23,5.07,1.23s3.55-0.45,5.07-1.23
		c1.73,0.11,3.77,0.96,5.67,2.2c2.07,1.34,3.98,3.12,5.22,4.69c2.75,3.74,3.95,7.15,3.87,13.54h-39.6
		c0.09-7.66,1.35-10.57,4.88-14.86C411.64,147.57,415.67,144.45,419.83,143.8z"/>
	<path class="st4" d="M409.26,197.41v-2.06h1.47c0.92,0,1.38,0.33,1.38,1.01c0,0.75-0.42,1.05-1.39,1.05H409.26z M409.26,194.85
		v-1.96h1.4c0.81,0,1.21,0.33,1.21,0.97c0,0.6-0.44,0.99-1.18,0.99H409.26z M408.97,197.95h1.78c1.37,0,2.04-0.5,2.04-1.55
		c0-0.7-0.41-1.21-1.26-1.38c0.67-0.18,1.02-0.6,1.02-1.23c0-0.92-0.63-1.43-1.81-1.43h-1.76c-0.22,0-0.35,0.16-0.35,0.38v4.83
		C408.61,197.79,408.75,197.95,408.97,197.95z"/>
	<path class="st4" d="M416.73,195.57h-2.7c0.11-0.79,0.67-1.34,1.43-1.34C416.21,194.23,416.7,194.77,416.73,195.57z M413.42,195.91
		c0,1.26,0.85,2.13,2.1,2.13c0.64,0,1.11-0.22,1.37-0.44c0.22-0.18,0.33-0.38,0.33-0.51c0-0.28-0.32-0.35-0.35-0.33
		c-0.21,0.4-0.57,0.76-1.34,0.76c-0.83,0-1.43-0.55-1.5-1.38c-0.01-0.04-0.01-0.09-0.01-0.12h3.12c0.16,0,0.22-0.05,0.22-0.2v-0.06
		c0-1.22-0.74-2.03-1.89-2.03C414.27,193.73,413.42,194.66,413.42,195.91z"/>
	<path class="st4" d="M420.21,193.73c-0.66,0-1.14,0.33-1.42,0.82v-0.24c-0.02-0.42-0.19-0.52-0.38-0.52
		c-0.12,0-0.22,0.05-0.22,0.07v3.82c0,0.22,0.11,0.29,0.28,0.29h0.08c0.16,0,0.27-0.07,0.27-0.29v-2.57
		c0.22-0.49,0.67-0.83,1.28-0.83c0.7,0,1.08,0.49,1.08,1.29v2.11c0,0.22,0.11,0.29,0.28,0.29h0.08c0.16,0,0.27-0.07,0.27-0.29v-2.16
		C421.79,194.47,421.27,193.73,420.21,193.73z"/>
	<path class="st4" d="M426.15,193.79h-0.08c-0.16,0-0.27,0.07-0.27,0.29v2.57c-0.22,0.5-0.67,0.84-1.27,0.84
		c-0.7,0-1.09-0.49-1.09-1.29v-2.12c0-0.22-0.11-0.29-0.28-0.29h-0.07c-0.16,0-0.28,0.07-0.28,0.29v2.16c0,1.06,0.52,1.8,1.58,1.8
		c0.67,0,1.14-0.35,1.42-0.8c0,0.11,0.01,0.22,0.02,0.34c0.03,0.32,0.19,0.41,0.36,0.41c0.12,0,0.22-0.05,0.22-0.07v-3.83
		C426.43,193.86,426.31,193.79,426.15,193.79z"/>
	<path class="st4" d="M428.93,198.04c0.34,0,0.57-0.1,0.72-0.24c0.11-0.1,0.16-0.22,0.16-0.32c0-0.22-0.15-0.3-0.17-0.29
		c-0.13,0.19-0.34,0.32-0.61,0.32c-0.43,0-0.61-0.26-0.61-0.86v-2.3h1.05c0.2,0,0.28-0.09,0.28-0.24v-0.05
		c0-0.16-0.08-0.23-0.27-0.23h-1.05v-0.73c0-0.22-0.1-0.3-0.27-0.3h-0.07c-0.16,0-0.28,0.09-0.28,0.3v0.73h-0.41
		c-0.2,0-0.27,0.09-0.27,0.23v0.06c0,0.15,0.07,0.23,0.27,0.23h0.41v2.39C427.8,197.62,428.17,198.04,428.93,198.04z"/>
	<path class="st4" d="M430.24,197.7c0,0.14,0.08,0.25,0.28,0.25h2.82c0.21,0,0.29-0.08,0.29-0.23v-0.05c0-0.16-0.09-0.23-0.29-0.23
		H431l2.38-2.95c0.14-0.18,0.19-0.26,0.19-0.37v-0.04c0-0.13-0.07-0.24-0.28-0.24h-2.75c-0.2,0-0.29,0.08-0.29,0.22v0.06
		c0,0.16,0.09,0.23,0.29,0.23h2.23l-2.33,2.9c-0.15,0.18-0.2,0.26-0.2,0.39V197.7z"/>
	<path class="st4" d="M437.52,195.57h-2.7c0.11-0.79,0.67-1.34,1.43-1.34C436.99,194.23,437.48,194.77,437.52,195.57z M434.2,195.91
		c0,1.26,0.85,2.13,2.1,2.13c0.64,0,1.11-0.22,1.37-0.44c0.22-0.18,0.33-0.38,0.33-0.51c0-0.28-0.32-0.35-0.35-0.33
		c-0.21,0.4-0.57,0.76-1.34,0.76c-0.83,0-1.43-0.55-1.5-1.38c-0.01-0.04-0.01-0.09-0.01-0.12h3.12c0.16,0,0.22-0.05,0.22-0.2v-0.06
		c0-1.22-0.74-2.03-1.89-2.03C435.05,193.73,434.2,194.66,434.2,195.91z"/>
	<path class="st4" d="M440.64,193.73c-0.53,0-0.91,0.3-1.07,0.92c0-0.16-0.01-0.3-0.02-0.45c-0.03-0.33-0.19-0.41-0.36-0.41
		c-0.13,0-0.22,0.05-0.22,0.07v3.82c0,0.22,0.11,0.29,0.29,0.29h0.07c0.16,0,0.27-0.08,0.27-0.29v-1.63c0-1.04,0.31-1.7,0.98-1.7
		c0.22,0,0.39,0.07,0.49,0.17c0.02,0.02,0.19-0.09,0.19-0.34C441.26,193.91,441.01,193.73,440.64,193.73z"/>
	<path class="st4" d="M19.41,27.65c-0.06,0.09,0.21,0.48,0.6,0.48c0.23,0,0.41-0.12,0.57-0.41l2.78-3.9l2.74,3.88
		c0.15,0.26,0.38,0.39,0.62,0.39c0.42,0,0.7-0.41,0.63-0.48l-3.25-4.47l3.22-4.46c0.05-0.08-0.21-0.47-0.6-0.47
		c-0.23,0-0.41,0.12-0.57,0.41l-2.72,3.79l-2.66-3.79c-0.14-0.24-0.36-0.38-0.62-0.38c-0.42,0-0.68,0.39-0.63,0.47l3.17,4.41
		L19.41,27.65z"/>
	<path class="st4" d="M30.5,23.99l1.74-4.6l1.72,4.6H30.5z M28.49,28.12c0.26,0.03,0.54-0.08,0.68-0.51l1.04-2.68h4.05l1.03,2.66
		c0.15,0.42,0.42,0.56,0.71,0.53c0.35-0.02,0.62-0.24,0.59-0.33l-3.52-9.19c-0.09-0.24-0.29-0.38-0.82-0.38
		c-0.53,0-0.73,0.14-0.82,0.38l-3.51,9.19C27.9,27.86,28.16,28.1,28.49,28.12z"/>
	<path class="st4" d="M37.89,27.6c0,0.33,0.12,0.51,0.44,0.51h0.17c0.33,0,0.47-0.18,0.47-0.51v-2.69l-0.02-5.28l2.57,5.4
		c0.15,0.33,0.27,0.54,0.79,0.54c0.48,0,0.63-0.21,0.77-0.54l2.58-5.41l-0.02,5.32v2.66c0,0.33,0.15,0.51,0.47,0.51h0.14
		c0.33,0,0.47-0.18,0.47-0.51V18.9c0-0.39-0.26-0.65-0.7-0.65h-0.29c-0.44,0-0.59,0.17-0.77,0.63l-2.65,5.53l-2.65-5.53
		c-0.2-0.45-0.32-0.63-0.8-0.63h-0.3c-0.41,0-0.68,0.26-0.68,0.65V27.6z"/>
	<path class="st4" d="M52.01,23.45h-1.93v-4.19h1.95c1.63,0,2.48,0.73,2.48,2.09C54.51,22.69,53.66,23.45,52.01,23.45z M49.43,28.12
		h0.15c0.33,0,0.5-0.21,0.5-0.51v-3.22h1.9c2.42,0,3.67-1.09,3.67-3.07c0-1.93-1.3-3.02-3.61-3.02h-2.48
		c-0.38,0-0.62,0.27-0.62,0.67v8.65C48.94,27.94,49.11,28.12,49.43,28.12z"/>
	<path class="st4" d="M60.3,23.45h-1.93v-4.19h1.95c1.63,0,2.48,0.73,2.48,2.09C62.79,22.69,61.94,23.45,60.3,23.45z M57.71,28.12
		h0.15c0.33,0,0.5-0.21,0.5-0.51v-3.22h1.9c2.42,0,3.67-1.09,3.67-3.07c0-1.93-1.3-3.02-3.61-3.02h-2.48
		c-0.38,0-0.62,0.27-0.62,0.67v8.65C57.23,27.94,57.39,28.12,57.71,28.12z"/>
	<path class="st4" d="M24.11,197.39h-1v-4.47h1.01c1.46,0,2.31,0.82,2.31,2.23C26.43,196.57,25.59,197.39,24.11,197.39z
		 M22.46,197.58c0,0.21,0.16,0.37,0.37,0.37h1.25c1.88,0,3.02-1.06,3.02-2.81c0-1.74-1.11-2.78-2.97-2.78h-1.32
		c-0.2,0-0.35,0.16-0.35,0.38V197.58z"/>
	<path class="st4" d="M30.71,196.33c0,0.7-0.6,1.24-1.4,1.24c-0.55,0-0.9-0.27-0.9-0.7c0-0.63,0.65-0.89,2.15-0.92l0.15-0.01V196.33
		z M27.79,196.88c0,0.7,0.54,1.15,1.4,1.15c0.69,0,1.25-0.33,1.53-0.83c0,0.13,0.01,0.26,0.02,0.38c0.03,0.31,0.18,0.4,0.36,0.4
		c0.11,0,0.22-0.04,0.22-0.07v-2.55c0-1.02-0.6-1.63-1.69-1.63c-0.68,0-1.16,0.23-1.43,0.49c-0.16,0.16-0.25,0.34-0.25,0.46
		c0,0.31,0.36,0.33,0.38,0.32c0.21-0.41,0.6-0.73,1.26-0.73c0.71,0,1.11,0.39,1.11,1.09v0.17h-0.1
		C28.67,195.55,27.79,195.95,27.79,196.88z"/>
	<path class="st4" d="M33.74,198.04c0.34,0,0.57-0.1,0.72-0.24c0.11-0.1,0.16-0.22,0.16-0.32c0-0.22-0.15-0.3-0.17-0.29
		c-0.13,0.19-0.34,0.32-0.61,0.32c-0.43,0-0.61-0.26-0.61-0.86v-2.3h1.05c0.2,0,0.28-0.09,0.28-0.24v-0.05
		c0-0.16-0.08-0.23-0.27-0.23h-1.05v-0.73c0-0.22-0.1-0.3-0.27-0.3h-0.07c-0.16,0-0.28,0.09-0.28,0.3v0.73H32.2
		c-0.2,0-0.27,0.09-0.27,0.23v0.06c0,0.15,0.07,0.23,0.27,0.23h0.41v2.39C32.61,197.62,32.98,198.04,33.74,198.04z"/>
	<path class="st4" d="M38.36,195.57h-2.7c0.11-0.79,0.67-1.34,1.43-1.34C37.84,194.23,38.33,194.77,38.36,195.57z M35.05,195.91
		c0,1.26,0.85,2.13,2.1,2.13c0.64,0,1.11-0.22,1.37-0.44c0.22-0.18,0.33-0.38,0.33-0.51c0-0.28-0.32-0.35-0.35-0.33
		c-0.21,0.4-0.57,0.76-1.34,0.76c-0.83,0-1.43-0.55-1.5-1.38c-0.01-0.04-0.01-0.09-0.01-0.12h3.12c0.16,0,0.22-0.05,0.22-0.2v-0.06
		c0-1.22-0.74-2.03-1.89-2.03C35.9,193.73,35.05,194.66,35.05,195.91z"/>
	<path class="st4" d="M41.84,193.73c-0.66,0-1.14,0.33-1.42,0.82v-0.24c-0.02-0.42-0.19-0.52-0.38-0.52c-0.12,0-0.22,0.05-0.22,0.07
		v3.82c0,0.22,0.11,0.29,0.28,0.29h0.08c0.16,0,0.27-0.07,0.27-0.29v-2.57c0.22-0.49,0.67-0.83,1.28-0.83c0.7,0,1.08,0.49,1.08,1.29
		v2.11c0,0.22,0.11,0.29,0.28,0.29h0.08c0.16,0,0.27-0.07,0.27-0.29v-2.16C43.42,194.47,42.9,193.73,41.84,193.73z"/>
	<path class="st4" d="M47.9,195.88c0,0.98-0.57,1.63-1.41,1.63c-0.77,0-1.38-0.58-1.39-1.33v-0.93c0.23-0.6,0.71-0.99,1.41-0.99
		C47.3,194.26,47.9,194.92,47.9,195.88z M45.1,197.19c0.22,0.46,0.73,0.86,1.49,0.86c1.11,0,1.92-0.88,1.92-2.17
		c0-1.29-0.82-2.14-1.88-2.14c-0.71,0-1.2,0.34-1.52,0.86v-1.98c0-0.45-0.2-0.55-0.4-0.55c-0.12,0-0.22,0.04-0.22,0.07v5.54
		c0,0.24,0.11,0.31,0.28,0.31h0.07c0.15,0,0.25-0.07,0.26-0.27V197.19z"/>
	<path class="st4" d="M52.02,196.33c0,0.7-0.6,1.24-1.4,1.24c-0.55,0-0.9-0.27-0.9-0.7c0-0.63,0.65-0.89,2.15-0.92l0.15-0.01V196.33
		z M49.1,196.88c0,0.7,0.54,1.15,1.4,1.15c0.69,0,1.25-0.33,1.53-0.83c0,0.13,0.01,0.26,0.02,0.38c0.03,0.31,0.18,0.4,0.36,0.4
		c0.11,0,0.22-0.04,0.22-0.07v-2.55c0-1.02-0.6-1.63-1.69-1.63c-0.68,0-1.16,0.23-1.43,0.49c-0.16,0.16-0.25,0.34-0.25,0.46
		c0,0.31,0.36,0.33,0.38,0.32c0.21-0.41,0.6-0.73,1.26-0.73c0.71,0,1.11,0.39,1.11,1.09v0.17h-0.1
		C49.98,195.55,49.1,195.95,49.1,196.88z"/>
	<path class="st4" d="M55.72,193.73c-0.66,0-1.14,0.33-1.42,0.82v-0.24c-0.02-0.42-0.19-0.52-0.38-0.52c-0.12,0-0.22,0.05-0.22,0.07
		v3.82c0,0.22,0.11,0.29,0.28,0.29h0.08c0.16,0,0.27-0.07,0.27-0.29v-2.57c0.22-0.49,0.67-0.83,1.28-0.83c0.7,0,1.08,0.49,1.08,1.29
		v2.11c0,0.22,0.11,0.29,0.28,0.29h0.08c0.16,0,0.27-0.07,0.27-0.29v-2.16C57.31,194.47,56.79,193.73,55.72,193.73z"/>
	<path class="st4" d="M58.39,197.68c0,0.23,0.11,0.29,0.27,0.29h0.08c0.16,0,0.27-0.07,0.27-0.29v-1.8l1.85,1.87
		c0.13,0.16,0.25,0.22,0.38,0.23c0.23,0.01,0.35-0.22,0.34-0.28l-1.92-1.94l1.69-1.71c0.02-0.05-0.1-0.27-0.33-0.26
		c-0.11,0.01-0.25,0.08-0.38,0.23L59,195.7v-3.09c0-0.45-0.2-0.55-0.4-0.55c-0.12,0-0.22,0.04-0.22,0.07V197.68z"/>
</g>
</svg>
